<svg width="162" height="40" viewBox="0 0 162 40" fill="#BABABA" xmlns="http://www.w3.org/2000/svg">
<path d="M45.5056 17.7017V15.0063H47.8501V13.9426C47.8501 12.6663 48.2633 11.6017 49.0223 10.7517C49.7804 9.89991 50.9517 9.54537 52.5381 9.54537C52.8839 9.54537 53.2279 9.54537 53.5728 9.61627C53.9169 9.61627 54.2618 9.68718 54.6067 9.68718V12.6663C54.1244 12.5954 53.7103 12.5954 53.1597 12.5954C52.6072 12.5954 52.2623 12.7372 52.0557 12.9499C51.8491 13.2335 51.7108 13.659 51.7108 14.2263V15.0772H54.4001V17.7726H51.7108V29.5454H47.8501V17.7017H45.5056ZM57.3371 9.54537H61.8876V29.5454H57.3371V9.54537ZM68.1692 25.9535C68.7499 26.5145 69.6937 26.7945 70.7831 26.7945C71.5812 26.7945 72.3075 26.5845 72.8882 26.1635C73.4688 25.7426 73.8319 25.3217 73.9767 24.9008H77.5343C76.9536 26.6545 76.0818 27.8463 74.9204 28.6181C73.7591 29.3899 72.3075 29.7399 70.6375 29.7399C69.4762 29.7399 68.3877 29.5299 67.5158 29.179C66.5729 28.8281 65.7738 28.3372 65.1204 27.6363C64.4678 27.0054 63.9591 26.1635 63.5959 25.2517C63.2337 24.3399 63.0881 23.2881 63.0881 22.2363C63.0881 21.1845 63.3065 20.1326 63.6687 19.2208C64.0319 18.309 64.5397 17.4672 65.1932 16.8363C65.8466 16.1354 66.6448 15.6445 67.5886 15.2235C68.5324 14.8026 69.549 14.6626 70.6375 14.6626C71.8716 14.6626 73.0329 14.8726 73.9048 15.3635C74.8476 15.8545 75.6467 16.4854 76.2274 17.2572C76.808 18.0281 77.244 18.9399 77.5343 19.9917C77.8246 20.9735 77.8965 22.0963 77.8246 23.1481H67.1535C67.2264 24.4808 67.5167 25.3917 68.1692 25.9535ZM72.7426 18.449C72.2347 17.9581 71.5084 17.6781 70.4928 17.6781C69.8393 17.6781 69.3314 17.8181 68.8955 18.0281C68.4596 18.239 68.0973 18.519 67.8789 18.7999C67.5886 19.0808 67.4439 19.4308 67.2983 19.7817C67.2254 20.1326 67.1526 20.4126 67.0807 20.6935H73.6863C73.6135 19.7117 73.2513 18.9399 72.7426 18.449ZM84.6477 25.9535C85.2284 26.5145 86.1722 26.7945 87.2616 26.7945C88.0597 26.7945 88.786 26.5845 89.3667 26.1635C89.9473 25.7426 90.3104 25.3217 90.4552 24.9008H94.0128C93.4321 26.6545 92.5602 27.8463 91.3989 28.6181C90.2376 29.3899 88.786 29.7399 87.116 29.7399C85.9546 29.7399 84.8662 29.5299 83.9943 29.179C83.0514 28.8281 82.2523 28.3372 81.5988 27.6363C80.9454 27.0054 80.4376 26.1635 80.0744 25.2517C79.7122 24.3399 79.5666 23.2881 79.5666 22.2363C79.5666 21.1845 79.785 20.1326 80.1472 19.2208C80.5104 18.309 81.0182 17.4672 81.6717 16.8363C82.3251 16.1354 83.1233 15.6445 84.0671 15.2235C85.0109 14.8026 86.0275 14.6626 87.116 14.6626C88.3501 14.6626 89.5114 14.8726 90.3833 15.3635C91.3261 15.8545 92.1252 16.4854 92.7059 17.2572C93.2865 18.0281 93.7225 18.9399 94.0128 19.9917C94.3031 20.9735 94.375 22.0963 94.3031 23.1481H83.632C83.7049 24.4808 83.9943 25.3917 84.6477 25.9535ZM89.221 18.449C88.7132 17.9581 87.9869 17.6781 86.9712 17.6781C86.3178 17.6781 85.8099 17.8181 85.374 18.0281C84.938 18.239 84.5758 18.519 84.3574 18.7999C84.0671 19.0808 83.9224 19.4308 83.7767 19.7817C83.7039 20.1326 83.6311 20.4126 83.5583 20.6935H90.1657C90.0201 19.7117 89.7289 18.9399 89.221 18.449ZM104.901 17.7481H101.925V24.8308C101.925 25.4626 102.071 25.9535 102.288 26.1635C102.506 26.3735 102.941 26.5145 103.667 26.5145H104.321C104.539 26.5145 104.756 26.4445 104.901 26.4445V29.3899C104.538 29.4599 104.175 29.4599 103.74 29.5299H102.506C101.852 29.5299 101.272 29.4599 100.691 29.3899C100.111 29.319 99.6018 29.179 99.1667 28.899C98.7121 28.6817 98.3512 28.3079 98.1502 27.8463C97.9317 27.4263 97.787 26.7945 97.787 26.0935V17.6781H95.3188V15.0126H97.787V10.7363H101.852V15.0135H104.901V17.7481Z"/>
<path d="M111.87 15.0826V16.9063H111.943C112.451 16.1354 113.104 15.5735 113.83 15.2235C114.629 14.8726 115.427 14.6626 116.371 14.6626C117.532 14.6626 118.549 14.8726 119.42 15.2935C120.29 15.7145 120.944 16.2754 121.525 16.9763C122.105 17.6781 122.468 18.519 122.759 19.4308C123.055 20.3842 123.203 21.3779 123.195 22.3763C123.195 23.3581 123.049 24.2699 122.759 25.1817C122.468 26.0935 122.105 26.8645 121.525 27.5663C120.944 28.2672 120.29 28.8281 119.492 29.179C118.694 29.5999 117.75 29.8099 116.662 29.8099C115.717 29.8099 114.919 29.5999 114.121 29.249C113.322 28.899 112.741 28.3372 112.233 27.6363H112.16V34.439H108.095V15.0817L111.87 15.0826ZM117.17 26.4445C117.581 26.1745 117.948 25.8434 118.258 25.4626C118.567 25.0254 118.766 24.5202 118.839 23.9899C118.984 23.4281 118.984 22.8672 118.984 22.3063C118.984 21.7454 118.912 21.1845 118.766 20.6235C118.637 20.0981 118.416 19.5996 118.113 19.1508C117.824 18.7312 117.454 18.3736 117.024 18.099C116.589 17.8181 116.007 17.6781 115.355 17.6781C114.701 17.6781 114.121 17.8181 113.685 18.099C113.256 18.3737 112.885 18.7313 112.596 19.1508C112.287 19.5881 112.088 20.0932 112.016 20.6235C111.87 21.1845 111.87 21.7454 111.87 22.3763C111.87 22.9372 111.943 23.499 112.089 24.0599C112.233 24.6208 112.378 25.1117 112.668 25.5326C112.96 25.9535 113.322 26.3035 113.758 26.5145C114.193 26.7945 114.774 26.9354 115.427 26.9354C116.153 26.7945 116.734 26.6545 117.17 26.4445ZM125.596 9.54537H130.146V29.5454H125.596V9.54537ZM142.287 29.5954V27.6045H142.216C141.715 28.4581 141.069 29.0263 140.209 29.4526C139.42 29.8081 138.56 30.0217 137.7 30.0217C136.625 30.0217 135.764 29.879 135.048 29.5945C134.331 29.3108 133.828 28.8845 133.399 28.3863C132.969 27.889 132.754 27.2499 132.539 26.539C132.396 25.8281 132.324 24.9754 132.324 24.0508V15.0963H136.338V23.269C136.338 24.4781 136.553 25.3308 136.911 25.9699C137.27 26.539 137.987 26.8226 138.919 26.8226C139.994 26.8226 140.783 26.4681 141.285 25.8281C141.786 25.1881 142.001 24.1226 142.001 22.6299V15.0954H146.015V29.5954H142.287ZM152.538 25.9699C152.753 26.2545 152.968 26.539 153.255 26.7517C153.541 26.9654 153.828 27.1072 154.259 27.179C154.617 27.2499 154.975 27.3208 155.405 27.3208C155.692 27.3208 155.979 27.3208 156.265 27.2499C156.552 27.1781 156.839 27.1072 157.125 26.9654C157.412 26.8226 157.628 26.6099 157.772 26.3963C157.915 26.1835 158.057 25.899 158.057 25.5435C158.057 24.9754 157.628 24.4772 156.839 24.1935C156.051 23.909 154.904 23.6245 153.47 23.269C152.896 23.1272 152.323 22.9854 151.749 22.7717C151.176 22.6299 150.675 22.3454 150.244 22.0608C149.818 21.7808 149.453 21.4185 149.169 20.9954C148.883 20.5681 148.739 19.9999 148.739 19.3599C148.739 18.4363 148.954 17.6545 149.312 17.0863C149.677 16.5108 150.168 16.0249 150.746 15.6645C151.32 15.309 152.036 15.0954 152.753 14.9535C153.51 14.8123 154.277 14.7411 155.047 14.7408C155.836 14.7408 156.624 14.8117 157.34 14.9535C158.057 15.0954 158.775 15.3808 159.348 15.7354C159.921 16.0908 160.423 16.5881 160.781 17.1572C161.14 17.7254 161.427 18.5072 161.499 19.3599H157.699C157.628 18.5781 157.341 18.0808 156.839 17.7963C156.337 17.5126 155.692 17.3699 154.975 17.3699C154.76 17.3699 154.474 17.3699 154.259 17.4408C153.972 17.4408 153.756 17.5126 153.541 17.6545C153.308 17.73 153.107 17.8802 152.968 18.0817C152.825 18.2945 152.753 18.5072 152.753 18.7908C152.753 19.1472 152.896 19.4317 153.183 19.6454C153.47 19.8581 153.756 20.0708 154.187 20.2135C154.653 20.3734 155.133 20.492 155.62 20.5681C156.194 20.7108 156.696 20.7817 157.269 20.9235C157.843 21.0663 158.416 21.2081 158.989 21.4217C159.563 21.6345 160.064 21.8481 160.495 22.1317C160.925 22.4163 161.283 22.8426 161.57 23.269C161.856 23.6963 162 24.2645 162 24.9754C162 25.899 161.785 26.7517 161.427 27.3917C161.068 28.0317 160.567 28.5281 159.921 28.9554C159.276 29.3817 158.559 29.5954 157.771 29.8081C156.983 29.9499 156.123 30.0217 155.333 30.0217C154.473 30.0217 153.685 29.9499 152.825 29.7372C152.057 29.6033 151.325 29.3131 150.675 28.8845C150.048 28.4761 149.511 27.944 149.097 27.3208C148.667 26.6808 148.452 25.899 148.452 24.9045H152.251C152.251 25.3308 152.324 25.6863 152.538 25.9699Z"/>
<path fill-rule="evenodd" clip-rule="evenodd" d="M39.4252 19.9291C39.4252 30.7319 30.608 39.4746 19.713 39.4746C8.81717 39.4746 0 30.8037 0 20C0 9.19641 8.88816 0.45459 19.7121 0.45459C30.5361 0.45459 39.4252 9.1255 39.4252 19.9291ZM30.6799 16.3752C30.6799 16.9434 30.608 17.3698 30.3933 17.7252C30.1776 18.0807 29.9628 18.2943 29.6761 18.507C29.3894 18.7207 29.0308 18.7916 28.6013 18.8625C28.1708 18.9334 27.7412 18.9334 27.3107 18.9334H24.3001V13.7452H27.3107C27.7412 13.7452 28.1708 13.7452 28.6013 13.8161C29.0308 13.887 29.3894 14.0298 29.6761 14.1716C29.9628 14.3852 30.2495 14.5989 30.3933 14.9534C30.608 15.3807 30.6799 15.8061 30.6799 16.3752ZM34.4069 16.3752C34.4069 15.6643 34.264 14.9534 34.0492 14.3134C33.8335 13.6743 33.4758 13.0343 32.9734 12.537C32.4369 11.9989 31.8048 11.5652 31.1095 11.2579C30.2141 10.9301 29.2682 10.7615 28.3146 10.7598H20.4294V28.1025H24.3001V21.8479H28.3137C29.3894 21.8479 30.3214 21.7052 31.1095 21.3498C31.8325 21.0943 32.4754 20.6532 32.9734 20.0707C33.4749 19.5734 33.8335 18.9343 34.0492 18.2943C34.2779 17.6799 34.3989 17.0307 34.4069 16.3752ZM30.9439 26.8179H33.6742V28.6361H30.9439V31.3634H29.1237V28.6361H26.3933V26.8179H29.1237V24.0907H30.9439V26.8179ZM10.9214 17.727H15.472V21.3634H10.9214V28.6361H6.37085V11.3634H19.1124V14.9998H10.9214V17.727Z"/>
</svg>
