<svg width="142" height="40" viewBox="0 0 142 40" fill="#BABABA" xmlns="http://www.w3.org/2000/svg">
<path d="M12.6465 4.84768H5.42551V8.26276C5.42551 10.7161 4.09841 12.5807 1.3271 12.5807H0V19.666H4.66438V31.0104C4.66438 36.2704 8.00165 39.5285 13.4857 39.5285C16.0423 39.5285 17.3694 38.9397 17.6817 38.7826V32.0702C17.1938 32.1684 16.4131 32.345 15.5544 32.345C13.798 32.345 12.627 31.7562 12.627 29.5776V19.6856H17.7793V12.6003H12.627V4.84768H12.6465Z"/>
<path d="M40.9058 12.6401V15.6822C40.3789 14.4654 38.3102 11.855 33.5873 11.855C25.9954 11.855 20.9407 17.9197 20.9407 25.7901C20.9407 33.9353 26.3077 39.843 33.841 39.843C37.1392 39.843 39.7934 38.2532 40.9644 35.7017V35.9765L40.9058 39.1168H48.7709L48.7123 12.6401H40.9058ZM34.9144 32.8558C31.7722 32.8558 29.079 30.1865 29.079 25.8294C29.079 21.2563 31.6747 18.8618 34.9144 18.8618C38.2126 18.8618 40.9058 21.2563 40.9058 25.8294C40.9058 30.3043 38.154 32.8558 34.9144 32.8558Z"/>
<path d="M71.8394 12.3848L52.616 34.7202L58.1391 39.5681L77.5186 17.213L71.8394 12.3848Z"/>
<path d="M57.3385 22.218C59.9927 22.218 62.1199 20.0983 62.1199 17.4879C62.1199 14.8186 59.9927 12.7578 57.3385 12.7578C54.7818 12.7578 52.6741 14.8383 52.6741 17.4879C52.6741 20.0983 54.7818 22.218 57.3385 22.218Z"/>
<path d="M84.1734 10.7554V13.0518H79.9774V19.8623H84.1734V39.5089H92.2531V19.8623H97.9909V13.0518H92.2531V11.0302C92.2531 8.10578 94.2633 7.45809 95.7075 7.45809C96.9761 7.45809 97.6786 7.61511 98.0885 7.73287V1.11859C97.3469 0.745681 95.9027 0.529785 94.2633 0.529785C87.8425 0.549412 84.1734 4.69069 84.1734 10.7554Z"/>
<path d="M106.656 0C104.1 0 101.992 2.11971 101.992 4.73009C101.992 7.34047 104.119 9.46018 106.656 9.46018C109.31 9.46018 111.438 7.34047 111.438 4.73009C111.438 2.13934 109.31 0 106.656 0Z"/>
<path d="M110.754 12.8364H102.675V39.2935H110.754V12.8364Z"/>
<path d="M133.393 26.1629L141.902 17.6448L136.633 12.3848L128.143 20.8832L119.81 12.5418L114.541 17.7429L122.933 26.104L114.326 34.7202L119.595 39.9999L128.202 31.3836L136.75 39.9999L142 34.7202L133.393 26.1629Z"/>
<path d="M72.7955 29.6758C70.2389 29.6758 68.1311 31.7562 68.1311 34.4059C68.1311 37.0163 70.2584 39.136 72.7955 39.136C75.4497 39.136 77.577 37.0163 77.577 34.4059C77.577 31.7562 75.4497 29.6758 72.7955 29.6758Z"/>
</svg>
