<svg width="284" height="40" viewBox="0 0 284 40" fill="#BABABA" xmlns="http://www.w3.org/2000/svg">
<path d="M90.5699 25.2862L90.6519 24.9582L90.6529 24.9572H92.4449V25.3812C92.4449 27.5662 91.9679 29.2532 91.0279 30.3952C90.0219 31.5742 88.7589 32.1712 87.2709 32.1712C86.4249 32.1712 85.5799 31.9542 84.7589 31.5272C83.9669 31.1472 83.0689 30.5052 82.0249 29.5692C80.8429 30.4962 79.7659 31.1412 78.7379 31.5392C77.6442 31.9542 76.4846 32.1683 75.3149 32.1712C73.1109 32.1712 71.2559 31.4502 69.7999 30.0282C68.3319 28.5942 67.5879 26.8132 67.5879 24.7352C67.5879 23.1242 68.0479 21.6992 68.9949 20.3812C69.8949 19.1482 71.4139 17.9562 73.5159 16.8332C72.5409 14.7712 72.0469 12.9962 72.0469 11.5512C72.0469 9.86817 72.6729 8.42317 73.9069 7.25617C75.1239 6.07317 76.6309 5.47217 78.3849 5.47217C80.0699 5.47217 81.4229 5.91917 82.4049 6.79917C83.4259 7.68517 83.9459 8.88217 83.9459 10.3552C83.9459 11.7182 83.4699 12.9912 82.5299 14.1412C81.6789 15.1812 80.2129 16.2062 78.1719 17.1912C79.3179 19.1612 80.3799 20.8762 81.2509 22.1652C81.9164 23.1634 82.64 24.1217 83.4179 25.0352C84.8599 23.2012 85.6199 21.6052 85.6199 20.4052C85.6199 19.9292 85.4559 19.5512 85.1319 19.2812C84.7689 18.9742 84.2109 18.8252 83.4259 18.8252H82.1299V16.8472H92.2819V18.8262H91.1469C90.6439 18.8262 90.2119 18.9042 89.8269 19.0642C89.4849 19.2202 89.1689 19.4682 88.8939 19.7982C88.5899 20.1322 88.2369 20.8032 87.7639 21.7802C86.9706 23.4992 86.001 25.1312 84.8709 26.6502C86.1939 27.9332 87.3889 28.6102 88.3359 28.6102C88.8939 28.6102 89.3449 28.3922 89.7539 27.9242C90.0389 27.5742 90.4169 26.8312 90.5639 25.3242L90.5699 25.2862ZM76.8649 29.3532C78.0649 29.3532 79.2959 28.9042 80.5279 28.0172C79.5869 26.8752 78.7015 25.6885 77.8749 24.4612C77.2379 23.5062 76.1359 21.7712 74.4759 18.8912C72.5039 20.0792 71.5039 21.4682 71.5039 23.0232C71.5039 24.3312 72.0569 25.7872 73.1029 27.2332C74.1269 28.6602 75.3569 29.3532 76.8649 29.3532ZM77.1149 15.1832C78.4929 14.5452 79.4349 13.8912 79.9179 13.2372L79.9189 13.2382C80.4629 12.5112 80.7389 11.6292 80.7389 10.6152C80.7389 9.60717 80.5199 8.91417 80.0299 8.36617C79.5789 7.85917 78.9779 7.61317 78.1889 7.61317C77.4609 7.61317 76.8629 7.85717 76.4089 8.33817C75.9069 8.87117 75.6729 9.52217 75.6729 10.3882C75.6729 11.6392 76.1579 13.2522 77.1149 15.1832Z"/>
<path d="M60.0259 19.9869C60.0259 8.98994 68.9719 0.0439453 79.9669 0.0439453H79.9679C90.9629 0.0439453 99.9079 8.98994 99.9079 19.9859C99.9079 30.9809 90.9629 39.9269 79.9669 39.9269C68.9719 39.9269 60.0259 30.9809 60.0259 19.9869ZM62.6829 19.9859C62.6829 29.5159 70.4369 37.2699 79.9669 37.2699C89.4979 37.2699 97.2519 29.5159 97.2519 19.9859C97.2519 10.4549 89.4969 2.70095 79.9669 2.70095C70.4369 2.70095 62.6829 10.4549 62.6829 19.9859Z"/>
<path d="M119.348 15.6008C119.348 13.3728 117.823 11.4528 115.465 11.4528H111.617V19.7498H115.465C117.823 19.7498 119.348 17.8298 119.348 15.6008ZM106 6.92676H116.159C121.533 6.92676 125 10.9378 125 15.6008C125 20.2638 121.533 24.2758 116.159 24.2758H111.617V30.9258H106V6.92676ZM138.566 22.9268C138.566 20.5788 136.933 18.5508 134.482 18.5508C132.032 18.5508 130.398 20.5788 130.398 22.9268C130.398 25.3098 132.032 27.3018 134.482 27.3018C136.932 27.3018 138.566 25.3098 138.566 22.9268ZM144 14.3538V31.4998H138.566V29.0808C137.75 30.6458 135.548 31.9268 133.346 31.9268C128.409 31.9268 125 28.0488 125 22.9268C125 17.8038 128.41 13.9268 133.346 13.9268C135.548 13.9268 137.75 15.2428 138.566 16.8078V14.3538H144ZM171 31.6488C170.21 31.7878 169.04 31.9268 167.493 31.9268C165.017 31.9268 161.613 31.6138 161.613 26.0188V18.8588H159V14.8968H161.613V9.92676H166.839V14.8968H170.622V18.8588H166.839V24.8368C166.839 27.3038 167.802 27.6868 169.109 27.6868C169.762 27.6868 170.519 27.6518 171 27.5828V31.6488ZM172 14.3398H177.374V16.7488C178.322 14.9588 180.289 13.9268 182.924 13.9268C185.101 13.9268 186.752 14.6488 187.665 15.8188C188.72 17.0928 189 18.7098 189 21.0848V30.9268H183.626V22.4268C183.626 20.0518 182.888 18.4008 180.641 18.4008C178.463 18.4008 177.374 20.0518 177.374 22.5988V30.9268H172V14.3398ZM196.429 21.1198H203.643C203.643 18.9228 202.179 17.5408 200.107 17.5408C197.964 17.5408 196.429 18.8168 196.429 21.1198ZM196.429 24.2378C196.536 26.2928 197.393 28.0288 200.25 28.0288C202.143 28.0288 203.071 27.1788 203.429 26.0808H208.786C208.286 29.3048 205.214 31.9268 200.286 31.9268C194.25 31.9268 191 28.2068 191 22.9268C191 17.9308 194.179 13.9268 200.143 13.9268C205.536 13.9268 209 17.5408 209 21.7218C209 22.4308 209 23.2098 208.821 24.2378H196.429ZM237 26.4348C237 30.4748 233.66 31.9268 229.569 31.9268C224.896 31.9268 222 29.6948 222 25.7608H227.113C227.113 27.5688 228.205 28.2768 229.74 28.2768C231 28.2768 231.886 27.8168 231.886 26.6828C231.886 25.3718 230.592 25.1948 227.488 24.1318C224.762 23.2458 222.409 22.4308 222.409 19.1358C222.409 15.5918 225.237 13.9258 229.669 13.9258C234.443 13.9258 236.761 16.4428 236.761 19.7028H231.615C231.615 18.2848 230.897 17.4698 229.467 17.4698C228.408 17.4698 227.523 17.9658 227.523 18.9938C227.523 20.2338 228.955 20.4468 231.715 21.4038C234.613 22.2888 237 23.1048 237 26.4348ZM239 6.92676H244.308V16.7998C245.276 15.0858 247.248 13.9888 249.903 13.9888C252.127 13.9888 253.669 14.7088 254.601 15.8738C255.677 17.1428 256 18.7888 256 21.1538V30.9258H250.692V22.4568C250.692 20.0918 249.939 18.4458 247.643 18.4458C245.42 18.4458 244.308 20.0918 244.308 22.6288V30.9258H239V6.92676ZM257.782 30.9268H263.218V13.9688H257.782V30.9268ZM260.482 4.92676C262.472 4.92676 264 6.43976 264 8.33976C264 10.2038 262.472 11.7518 260.482 11.7518C258.528 11.7518 257 10.2038 257 8.33976C257 6.43976 258.528 4.92676 260.482 4.92676Z"/>
<path d="M270.611 22.9591C270.611 25.2771 272.216 27.2141 274.658 27.2141C277.031 27.2141 278.636 25.2771 278.636 22.9591C278.636 20.6411 277.031 18.7041 274.658 18.7041C272.216 18.7041 270.611 20.6411 270.611 22.9591ZM270.611 17.0091C271.414 15.4871 273.577 14.2071 275.775 14.2071C280.625 14.2071 283.974 17.9771 283.974 22.9591C283.974 27.9411 280.624 31.7111 275.774 31.7111C273.577 31.7111 271.414 30.4311 270.611 28.9091V38.8381H265.273V14.6221H270.611V17.0091ZM5.513 11.9231H0V7.08008H16.712V11.9231H11.164V31.2971H5.513V11.9231Z"/>
<path d="M18 6.92676H23.308V16.7998C24.276 15.0858 26.248 13.9888 28.903 13.9888C31.127 13.9888 32.669 14.7088 33.601 15.8738C34.677 17.1438 35 18.7898 35 21.1548V30.9268H29.692V22.4578C29.692 20.0928 28.939 18.4468 26.644 18.4468C24.42 18.4468 23.308 20.0928 23.308 22.6298V30.9268H18V6.92676ZM41.429 21.1198H48.643C48.643 18.9228 47.179 17.5408 45.107 17.5408C42.964 17.5408 41.429 18.8168 41.429 21.1198ZM41.429 24.2378C41.536 26.2928 42.393 28.0288 45.25 28.0288C47.143 28.0288 48.071 27.1788 48.429 26.0808H53.786C53.286 29.3048 50.214 31.9268 45.286 31.9268C39.25 31.9268 36 28.2068 36 22.9268C36 17.9308 39.179 13.9268 45.143 13.9268C50.536 13.9268 54 17.5408 54 21.7218C54 22.4308 54 23.2098 53.821 24.2378H41.429ZM157 13.9438C156.836 13.932 156.671 13.9264 156.507 13.9268C154.16 13.9268 152.129 15.3488 151.358 16.9108V14.2038H146V30.9268H151.358V24.4048C151.358 20.3108 153.284 18.7848 156.227 18.7848C156.522 18.7848 156.766 18.7948 157 18.8208V13.9438ZM221 13.9438C220.836 13.932 220.672 13.9264 220.508 13.9268C218.161 13.9268 216.13 15.3488 215.359 16.9108V14.2038H210V30.9268H215.359V24.4048C215.359 20.3108 217.285 18.7848 220.228 18.7848C220.522 18.7848 220.768 18.7948 221 18.8208V13.9438Z"/>
</svg>
