<svg viewBox="0 0 32 32" fill="none" xmlns="http://www.w3.org/2000/svg">
<path d="M28.6159 26.7434H11.549C10.8214 26.7434 10.2318 26.1536 10.2318 25.426C10.2318 24.6985 10.8214 24.1089 11.549 24.1089H28.6159C29.3435 24.1089 29.9331 24.6985 29.9331 25.426C29.9333 26.1536 29.3435 26.7434 28.6159 26.7434Z" fill="#E6A500"/>
<path d="M27.4965 19.47H24.3046C21.8127 15.7334 22.0409 11.8091 22.508 9.5159C22.7021 8.56228 23.0907 7.66311 23.61 6.83987C24.0192 6.19094 24.2558 5.42239 24.2546 4.59816C24.2509 2.38039 22.4948 0.52711 20.2799 0.411631C17.8588 0.28541 15.8559 2.21144 15.8559 4.605C15.8559 5.45241 16.1073 6.2405 16.539 6.90017C17.006 7.61331 17.3588 8.39456 17.5499 9.22513C18.0658 11.4663 18.4464 15.5704 15.8461 19.47H12.6085C10.3461 19.47 8.51208 21.304 8.51208 23.5665V24.8536H31.5927V23.5665C31.5927 21.304 29.7587 19.47 27.4965 19.47Z" fill="#FFB700"/>
<path d="M21 21.4999C21 27.2991 16.2988 32 10.4999 32C4.70093 32 0 27.2991 0 21.4999C0 15.7009 4.70093 11 10.4999 11C16.2988 11 21 15.7009 21 21.4999Z" fill="#F4F4F4"/>
<path d="M10.5011 30.357C15.3844 30.357 19.3575 26.384 19.3575 21.5006C19.3575 16.6173 15.3844 12.6445 10.5011 12.6445C5.61779 12.6445 1.64499 16.6173 1.64499 21.5006C1.64499 26.384 5.61779 30.357 10.5011 30.357ZM4.41256 20.9572H2.75151C2.87206 19.2232 3.5636 17.6444 4.63919 16.408L5.81152 17.58C6.30734 18.0759 7.07631 17.3069 6.58021 16.8111L5.40817 15.639C6.64488 14.5634 8.22367 13.8719 9.95734 13.7513V15.4124C9.95734 16.1136 11.0449 16.1136 11.0449 15.4124V13.7513C12.7785 13.8719 14.3573 14.5634 15.5937 15.639L14.422 16.8111C13.9259 17.3072 14.6949 18.0759 15.1907 17.58L16.3627 16.408C17.4386 17.6444 18.1301 19.2235 18.2504 20.9572H16.5896C15.8882 20.9572 15.8882 22.0444 16.5896 22.0444H18.2504C18.1301 23.7783 17.4386 25.3571 16.3627 26.5936L15.1907 25.4215C14.6949 24.9257 13.9259 25.6947 14.422 26.1905L15.5937 27.3625C14.3573 28.4381 12.7785 29.1297 11.0449 29.2502V27.5892C11.0449 26.888 9.95734 26.888 9.95734 27.5892V29.2502C8.22367 29.1297 6.6446 28.4381 5.40817 27.3625L6.58021 26.1905C7.07631 25.6944 6.30734 24.9257 5.81152 25.4215L4.63948 26.5936C3.5636 25.3571 2.87206 23.7783 2.75179 22.0447H4.41256C5.11402 22.0444 5.11402 20.9572 4.41256 20.9572Z" fill="#BABABA"/>
<path d="M10.2454 22.125C10.4173 22.2177 10.6405 22.207 10.8022 22.1009L13.3542 20.4237C13.9405 20.0385 13.3431 19.1299 12.7571 19.5148L11.0473 20.6384V17.7817C11.0473 17.0806 9.96002 17.0806 9.96002 17.7817V21.6465C9.95974 21.8462 10.0695 22.03 10.2454 22.125Z" fill="#BABABA"/>
</svg>
