<svg width="180" height="40" viewBox="0 0 180 40" fill="#BABABA" xmlns="http://www.w3.org/2000/svg">
<path d="M176.029 0L166.196 21.0845L162.498 13.0954H158.5L164.58 26.1634H167.812L180 0H176.029Z"/>
<path d="M133.85 39.1489H141.765V24.6259C141.765 21.304 143.683 18.9704 146.531 18.9704C149.27 18.9704 150.694 20.8922 150.694 23.665V39.1489H158.61V22.1551C158.61 16.3898 155.159 12.3266 149.571 12.3266C146.011 12.3266 143.518 13.864 141.656 16.6643H141.491V13.0953H133.823L133.85 39.1489ZM118.293 12.3815C110.022 12.3815 104.489 18.339 104.489 26.1908C104.489 33.9876 110.022 40 118.293 40C126.564 40 132.097 33.9876 132.097 26.1908C132.124 18.339 126.564 12.3815 118.293 12.3815ZM118.238 34.1249C114.486 34.1249 112.487 30.9677 112.487 26.1908C112.487 21.3589 114.459 18.2566 118.238 18.2566C121.991 18.2566 124.072 21.3589 124.072 26.1908C124.099 30.9677 122.018 34.1249 118.238 34.1249ZM81.9204 39.1489H104.16V32.8895H91.5613V32.7248L103.612 19.1901V13.0679H81.9204V19.3548H94.1085V19.5195L81.9204 33.164V39.1489ZM71.7591 39.1489H79.7293V13.0953H71.7591V39.1489ZM53.2716 39.1489H61.2144V27.1791C61.2144 21.7433 64.4736 19.3273 69.431 20.0137H69.5954V13.1502C69.1845 12.9855 68.7189 12.9581 67.9794 12.9581C64.8845 12.9581 62.8029 14.3857 61.0226 17.433H60.8583V13.0953H53.2716V39.1489ZM38.7006 34.1523C35.1948 34.1523 33.0585 31.8737 32.6477 28.3596H51.3817C51.4365 22.759 49.9575 18.2841 46.8625 15.4838C44.6714 13.4522 41.7956 12.3266 38.1255 12.3266C30.2922 12.3266 24.8692 18.2841 24.8692 26.0809C24.8692 33.9327 30.0457 39.9176 38.6458 39.9176C41.9051 39.9176 44.4797 39.0391 46.616 37.5841C48.8893 36.0192 50.5327 33.7131 50.9709 31.4344H43.3567C42.6172 33.1366 41.0287 34.1523 38.7006 34.1523ZM38.2898 18.0095C41.0835 18.0095 43.0007 20.096 43.3294 23.1434H32.7024C33.3324 20.0686 35.0031 18.0095 38.2898 18.0095ZM9.03836 39.1489H17.3646L26.403 13.0953H18.4328L13.3658 29.8421H13.2563L8.1893 13.0953H0L9.03836 39.1489ZM71.7591 3.81596H79.7293V10.899H71.7591V3.81596Z"/>
</svg>
